inDegrees=no
num_controls=7
num_derivatives=13
num_iterations=110
num_multipliers=7
num_parameters=0
num_slacks=7
num_states=26
objective=0.465629
objective_accelerations=0.001327
objective_balance=0.001876
objective_effort=0.003745
objective_height=0.447080
objective_ligament=0.011602
solver_duration=1596.474075
status=Solve_Succeeded
success=true
DataType=double
version=3
OpenSimVersion=4.5
endheader
time	/jointset/ground_pelvis/pelvis_tilt/value	/jointset/ground_pelvis/pelvis_tx/value	/jointset/ground_pelvis/pelvis_ty/value	/jointset/hip_l/hip_flexion_l/value	/jointset/hip_l/hip_adduction_l/value	/jointset/hip_l/hip_rotation_l/value	/jointset/back/lumbar_extension/value	/jointset/patellofemoral_l/patellar_flexion_l/value	/jointset/knee_l/knee_flexion_l/value	/jointset/knee_l/knee_adduction_l/value	/jointset/knee_l/knee_rotation_l/value	/jointset/ankle_l/ankle_angle_l/value	/jointset/subtalar_l/subtalar_angle_l/value	/jointset/ground_pelvis/pelvis_tilt/speed	/jointset/ground_pelvis/pelvis_tx/speed	/jointset/ground_pelvis/pelvis_ty/speed	/jointset/hip_l/hip_flexion_l/speed	/jointset/hip_l/hip_adduction_l/speed	/jointset/hip_l/hip_rotation_l/speed	/jointset/back/lumbar_extension/speed	/jointset/patellofemoral_l/patellar_flexion_l/speed	/jointset/knee_l/knee_flexion_l/speed	/jointset/knee_l/knee_adduction_l/speed	/jointset/knee_l/knee_rotation_l/speed	/jointset/ankle_l/ankle_angle_l/speed	/jointset/subtalar_l/subtalar_angle_l/speed	/forceset/tau_hip_flexion_l	/forceset/tau_hip_adduction_l	/forceset/tau_hip_rotation_l	/forceset/tau_knee_flexion_l	/forceset/tau_ankle_angle_l	/forceset/tau_subtalar_angle_l	/forceset/tau_lumbar_extension	lambda_cid13_p0	lambda_cid13_p1	lambda_cid13_p2	lambda_cid13_p3	lambda_cid13_p4	lambda_cid13_p5	lambda_cid14_p0	/jointset/ground_pelvis/pelvis_tilt/accel	/jointset/ground_pelvis/pelvis_tx/accel	/jointset/ground_pelvis/pelvis_ty/accel	/jointset/hip_l/hip_flexion_l/accel	/jointset/hip_l/hip_adduction_l/accel	/jointset/hip_l/hip_rotation_l/accel	/jointset/back/lumbar_extension/accel	/jointset/patellofemoral_l/patellar_flexion_l/accel	/jointset/knee_l/knee_flexion_l/accel	/jointset/knee_l/knee_adduction_l/accel	/jointset/knee_l/knee_rotation_l/accel	/jointset/ankle_l/ankle_angle_l/accel	/jointset/subtalar_l/subtalar_angle_l/accel	gamma_cid13_p0	gamma_cid13_p1	gamma_cid13_p2	gamma_cid13_p3	gamma_cid13_p4	gamma_cid13_p5	gamma_cid14_p0
1.5	-0.1155718333325067	0.1160477726658714	0.8925417984654556	0.2186712074103886	-0.3226560911688748	-0.5460446222693208	-0.09236426403002813	0.08130664341569958	0.08130664341566603	-0.1745062120472098	-0.1734069417381766	-0.0110795164069911	0.03522978207736244	-0.011214475969605	-0.002331280200970667	0.002961324298197442	-0.018666510140691	0.01881694836397148	-0.02392984526732849	0.1797996583953061	-0.06903881877862365	-0.06903881877860261	0.0001475140307896745	0.001474245932019774	-0.03743465064191677	-0.000215350992653646	-0.00961052174771136	0.05670806126698508	-0.01686728525665819	-0.07005971591173352	0.02186709936117004	-0.04028529495654638	0.04406031647710568	-30.1588702675252	14.23862097298689	7.146372123233193	3.429083046883576	-546.0731304806034	-35.39951369024232	-41.73326119248308	0.07389647454619781	-0.05254259208244456	0.005064570279060424	-0.024791878687052	0.009769069471830717	-0.0006473444061599065	-0.01069696306416994	-0.02900296928956693	-0.02900296928956707	0.0003398991667389927	-0.001441052661676159	-0.0749074487518946	-0.03244897944190485	-1.572941138472295e-10	1.878664161005828e-10	2.081911989274636e-10	1.272770157624058e-10	-4.453119673810466e-10	-1.443106082720332e-10	-1.78033351284011e-11
1.51	-0.1156803193380652	0.1160218498685915	0.8925716561143122	0.2184833738808405	-0.3224674640592951	-0.5462839317847296	-0.09056695792131066	0.08061491890417849	0.08061491890413182	-0.174504721143374	-0.1733922890047664	-0.01145753491734312	0.03522601383265309	-0.01048413643825548	-0.002851590178827136	0.003009603305433054	-0.01889671792785783	0.01890580983174642	-0.02392909424381198	0.1796435704921462	-0.06929732697481369	-0.06929732697480442	0.0001500806723143045	0.001456290257791729	-0.03816281976215762	-0.0005377019956383875	-0.008762352216061756	0.05583912123372709	-0.01704180092776284	-0.07107012708668298	0.0232893925980334	-0.04042109018646639	0.04326684233194601	-29.71408508963999	14.23216483137108	7.133184338158165	3.25454197677494	-546.041333109669	-35.53970496664687	-41.72121798940361	0.07239099214748368	-0.05152181785171762	0.004619145979871488	-0.02161356670399799	0.008045093501967663	0.0008808587668689993	-0.02076363238771539	-0.02296126298580146	-0.02296126298757177	0.0001271810655722647	-0.001974398361705439	-0.07083690439703454	-0.03203880495679527	-1.344349574287659e-10	1.901648428470297e-10	1.246275209582622e-10	1.148305873425914e-10	-4.642768461409202e-10	-1.100848407443117e-10	-2.577723600444661e-12
1.52	-0.1157815442883668	0.1159907746480898	0.8926019784692479	0.2182933426058296	-0.3222780282534176	-0.5465231448832967	-0.08877175247731396	0.07992087200705061	0.07992087200699909	-0.1745032221462457	-0.173377816142813	-0.01184264817104498	0.03521903994906836	-0.009762264918163654	-0.003361764845322698	0.003054265513983306	-0.01910605923392783	0.01897868762238211	-0.02391056189884331	0.179379525451168	-0.06950329589908621	-0.06950329589908871	0.0001491326906531057	0.001438271641228636	-0.03885359931187322	-0.0008564787678249041	-0.007914182684382388	0.05497018120047833	-0.0172163165988409	-0.07208053826163342	0.02471168583489967	-0.04055688541637457	0.04247336818680866	-29.26958795672536	14.22572492484086	7.120033029809538	3.083551758515794	-546.012034890451	-35.68050221926786	-41.70906937762983	0.07220287229472355	-0.05051552981037968	0.004341210541988331	-0.02061858246758785	0.006572334043965673	0.002908919884298712	-0.03228839062786086	-0.01849511490600328	-0.01849511490600339	-0.000363025470429995	-0.001453641128706282	-0.0674295346469625	-0.03173413328234208	-1.025208293707214e-10	1.994131241625361e-10	5.001708959773908e-11	1.010526227555949e-10	-3.736315171113746e-10	-2.072429072915028e-11	5.722825398991591e-12
1.53	-0.1158755907770948	0.115954650505624	0.892632729881219	0.2181013138314987	-0.3220879429913986	-0.5467620792111507	-0.08697973600086586	0.07922502137782557	0.07922502137780126	-0.1745017519255123	-0.1733635164632613	-0.01223448250991196	0.03520889668088476	-0.009048532798614787	-0.003861204799111703	0.003095404857013415	-0.01929609758173843	0.01903568043268352	-0.0238732152383289	0.1790050996626265	-0.06965767629411923	-0.06965767629411973	0.0001445598156254193	0.001421687573495469	-0.03950660011864112	-0.001171348173988542	-0.007044845583273433	0.05405947682891681	-0.01739716111701027	-0.0731360806523058	0.02619106258874266	-0.04068572717912956	0.04166533429839322	-28.80646239595952	14.21400598823501	7.106578173865432	2.89896166572164	-545.9816921876097	-35.83426410945275	-41.696823391431	0.07073337901118427	-0.04937938563878824	0.003908481571628457	-0.01765676216504013	0.004860099879735753	0.004610819139539406	-0.04282019938366319	-0.01253645520506424	-0.0125364552047672	-0.0005571436896415207	-0.001757309966063259	-0.06323510523175987	-0.0312393687276731	-6.098579394562213e-11	2.160456259576683e-10	-1.508051724106339e-11	8.585990099096733e-11	-1.665253423055726e-10	1.272169656789153e-10	6.665495461875229e-12
